<?xml version="1.0" standalone="no"?>
<!DOCTYPE svg PUBLIC "-//W3C//DTD SVG 20010904//EN"
 "http://www.w3.org/TR/2001/REC-SVG-20010904/DTD/svg10.dtd">
<svg version="1.0" xmlns="http://www.w3.org/2000/svg"
 width="307.000000pt" height="77.000000pt" viewBox="0 0 307.000000 77.000000"
 preserveAspectRatio="xMidYMid meet">
<g transform="translate(0.000000,77.000000) scale(0.100000,-0.100000)"
fill="#000000" stroke="none">
<path d="M1190 498 c-12 -10 -19 -22 -15 -28 8 -13 45 -13 45 0 0 14 86 11
135 -4 40 -12 40 -12 16 -25 -19 -11 -156 -14 -648 -16 -343 -1 -626 -5 -630
-8 -3 -4 -3 -13 0 -21 5 -13 50 -14 328 -10 197 3 328 9 335 15 8 7 14 6 19
-1 5 -8 84 -10 258 -9 249 2 362 -5 373 -22 8 -14 -44 -29 -118 -34 -54 -4
-70 -1 -74 10 -9 23 -44 19 -44 -4 0 -28 14 -34 93 -38 57 -3 79 1 126 22 l57
26 44 -20 c51 -23 100 -27 118 -9 7 7 12 9 12 6 0 -4 16 0 36 8 33 14 39 14
82 -8 33 -15 64 -22 102 -22 85 1 110 10 110 39 0 33 -14 39 -35 15 -14 -16
-31 -20 -79 -20 -34 1 -74 7 -91 14 -28 12 -29 13 -9 20 55 18 187 20 654 14
278 -4 531 -8 564 -10 64 -4 90 8 84 38 -3 18 -17 19 -617 16 -338 -2 -622 -5
-632 -7 -11 -2 -19 0 -19 5 0 5 -14 11 -30 15 -31 7 -33 24 -2 24 9 0 47 3 84
7 48 5 72 3 83 -6 12 -10 18 -10 30 0 8 7 15 16 15 21 0 12 -67 28 -93 23 -12
-3 -38 -7 -57 -10 -19 -3 -54 -13 -77 -21 -39 -14 -46 -14 -107 7 l-65 21 -59
-21 c-56 -21 -62 -21 -106 -6 -26 9 -55 16 -66 16 -10 0 -21 4 -25 9 -9 16
-81 8 -105 -11z m395 -50 c19 -4 19 -4 -2 -16 -24 -13 -73 -1 -73 18 0 6 4 9
9 5 5 -3 13 -1 16 5 4 7 11 8 18 2 7 -6 21 -12 32 -14z m-85 -28 c13 -9 13
-11 0 -20 -8 -6 -24 -8 -35 -5 -11 2 -28 5 -37 5 -26 0 -22 18 5 23 39 8 52 7
67 -3z m190 0 c25 -1 -20 -30 -46 -30 -28 0 -54 10 -54 20 0 11 39 19 65 14
11 -2 27 -4 35 -4z m-115 -32 c38 -17 30 -28 -20 -28 -47 0 -58 12 -27 29 21
13 17 13 47 -1z"/>
</g>
</svg>
